<svg xmlns="http://www.w3.org/2000/svg" width="25" height="20" viewBox="0 0 20 20" fill="none" id="heart-icon" style="cursor:pointer">
  <path d="M18.3644 2.50476C17.33 1.40021 15.8804 0.771733 14.3617 0.769403C12.8417 0.77115 11.3906 1.39929 10.3546 2.50405L10.0015 2.8747L9.64836 2.50405C7.59251 0.306056 4.13215 0.179829 1.91953 2.22206C1.82148 2.31259 1.72679 2.40661 1.63565 2.50405C-0.545218 4.84079 -0.545218 8.45212 1.63565 10.7889L9.48255 19.0091C9.75403 19.2938 10.2064 19.306 10.493 19.0363C10.5024 19.0275 10.5115 19.0184 10.5204 19.0091L18.3645 10.7889C20.5452 8.45237 20.5452 4.84125 18.3644 2.50476Z" fill="none" stroke="#7d5449" stroke-width="1.5"/>
</svg>
